/* XPM */
static char * top_left_active_xpm[] = {
"2 26 3 1",
" 	c None",
".	c #373B42",
"+	c #FFFFFF",
"..",
".+",
".+",
".+",
".+",
".+",
".+",
".+",
".+",
".+",
".+",
".+",
".+",
".+",
".+",
".+",
".+",
".+",
".+",
".+",
".+",
".+",
".+",
".+",
".+",
".+"};
