/* XPM */
static char * close_active_xpm[] = {
"15 25 13 1",
" 	c None",
".	c #E7E8EB",
"+	c #F6E2E3",
"@	c #FBA3A7",
"#	c #FD7D83",
"$	c #FD6F75",
"%	c #FAC9CB",
"&	c #FD7177",
"*	c #FE9CA1",
"=	c #FEBBBF",
"-	c #FEC6C9",
";	c #FEB1B5",
">	c #FEC8CB",
"...............",
"...............",
"...............",
"...............",
"...............",
"...............",
"...............",
"....+@#$#@+....",
"...%&*=-=*&%...",
"..+&;>>>>>;&+..",
"..@*>>>>>>>*@..",
"..#=>>>>>>>=#..",
"..$->>>>>>>-$..",
"..#=>>>>>>>=#..",
"..@*>>>>>>>*@..",
"..+&;>>>>>;&+..",
"...%&*=-=*&%...",
"....+@#$#@+....",
"...............",
"...............",
"...............",
"...............",
"...............",
"...............",
"..............."};
