/* XPM */
static char * maximize_prelight_xpm[] = {
"15 25 16 1",
" 	c None",
".	c #E7E8EB",
"+	c #F0E8D2",
"@	c #DABD67",
"#	c #CCA226",
"$	c #C7980E",
"%	c #E7D7A8",
"&	c #C89A11",
"*	c #E3C160",
"=	c #F5DD97",
"-	c #FBE7AB",
";	c #EFD384",
">	c #FCE8AD",
",	c #DDB951",
"'	c #C99C16",
")	c #C7980F",
"...............",
"...............",
"...............",
"...............",
"...............",
"...............",
"...............",
"....+@#$#@+....",
"...%&*=-=*&%...",
"..+&;>>>>>;&+..",
"..@*>>>>>>>*@..",
"..#=>>,',>>=#..",
"..$->>')'>>-$..",
"..#=>>,',>>=#..",
"..@*>>>>>>>*@..",
"..+&;>>>>>;&+..",
"...%&*=-=*&%...",
"....+@#$#@+....",
"...............",
"...............",
"...............",
"...............",
"...............",
"...............",
"..............."};
