/* XPM */
static char * top_right_inactive_xpm[] = {
"4 22 2 1",
" 	c None",
".	c #E7E8EB",
"    ",
"..  ",
"... ",
"... ",
"....",
"....",
"....",
"....",
"....",
"....",
"....",
"....",
"....",
"....",
"....",
"....",
"....",
"....",
"....",
"....",
"....",
"...."};
