/* XPM */
static char * ]_xpm[] = {
"4 4 2 1",
" 	c None",
".	c #FFFFFF",
"... ",
"... ",
"..  ",
"    "};
