/* XPM */
static char * close_active_xpm[] = {
"13 25 6 1",
" 	c None",
".	c #FFFFFF",
"+	c #A6A8AB",
"@	c #45494E",
"#	c #22262D",
"$	c #1E2229",
".............",
".............",
".............",
".............",
".............",
".............",
".............",
".............",
".............",
"....+@#@+....",
"...+$$$$$+...",
"...@$$$$$@...",
"...#$$$$$#...",
"...@$$$$$@...",
"...+$$$$$+...",
"....+@#@+....",
".............",
".............",
".............",
".............",
".............",
".............",
".............",
".............",
"............."};
