/* XPM */
static char * title_2_active_xpm[] = {
"15 22 3 1",
" 	c None",
".	c #F8F8F8",
"+	c #FFCEDA",
"...............",
"...............",
"...............",
"...............",
"...............",
"...............",
"...............",
"...............",
"...............",
"...............",
"...............",
"...............",
"...............",
"...............",
"...............",
"...............",
"...............",
"...............",
"...............",
"...............",
"...............",
"+++++++++++++++"};
