/* XPM */
static char * close_active_xpm[] = {
"31 24 38 1",
" 	c None",
".	c #CEEDF8",
"+	c #9DDBF2",
"@	c #EEF9FC",
"#	c #FDFEFE",
"$	c #FFFFFF",
"%	c #BFE7F6",
"&	c #E6F5FB",
"*	c #FAFDFE",
"=	c #AFE1F4",
"-	c #9AD7EE",
";	c #7AA1B2",
">	c #54626C",
",	c #42444C",
"'	c #DAF1FA",
")	c #92C9DE",
"!	c #444850",
"~	c #74757A",
"{	c #CECED0",
"]	c #F9F9F9",
"^	c #F5FBFD",
"/	c #ABABAE",
"(	c #A3DDF2",
"_	c #CCECF8",
":	c #BEBEC1",
"<	c #515258",
"[	c #EDF8FC",
"}	c #404148",
"|	c #BDE6F6",
"1	c #E4F5FB",
"2	c #ADE1F4",
"3	c #D8F1F9",
"4	c #F4FBFD",
"5	c #FEFEFE",
"6	c #A2DCF2",
"7	c #CAEBF8",
"8	c #ECF8FC",
"9	c #BBE6F6",
".++++++++++++++++++++++++++    ",
"@++++++++++++++++++++++++++++  ",
"#+++++++++++++++++++++++++++++ ",
"$%++++++++++++++++++++++++++++ ",
"$&+++++++++++++++++++++++++++++",
"$*+++++++++++++++++++++++++++++",
"$$=++++++++++++-;>,>;-+++++++++",
"$$'+++++++++++)!~{]{~!)++++++++",
"$$^++++++++++-!/$$$$$/!-+++++++",
"$$$(+++++++++;~$$$$$$$~;+++++++",
"$$$_+++++++++>{$$:<:$${>+++++++",
"$$$[+++++++++,]$$<}<$$],+++++++",
"$$$#+++++++++>{$$:<:$${>+++++++",
"$$$$|++++++++;~$$$$$$$~;+++++++",
"$$$$1++++++++-!/$$$$$/!-+++++++",
"$$$$*+++++++++)!~{]{~!)++++++++",
"$$$$$2+++++++++-;>,>;-+++++++++",
"$$$$$3+++++++++++++++++++++++++",
"$$$$$4+++++++++++++++++++++++++",
"$$$$$56++++++++++++++++++++++++",
"$$$$$$7++++++++++++++++++++++++",
"$$$$$$8++++++++++++++++++++++++",
"$$$$$$#++++++++++++++++++++++++",
"$$$$$$$9+++++++++++++++++++++++"};
