/* XPM */
static char * maximize_active_xpm[] = {
"18 24 9 1",
" 	c None",
".	c #FFFFFF",
"+	c #E6E7E8",
"@	c #8E9195",
"#	c #484B52",
"$	c #C2C3C5",
"%	c #3E4148",
"&	c #95979A",
"*	c #E9EAEA",
"..................",
"..................",
"..................",
"..................",
"..................",
"..................",
"..................",
".........+@##@+...",
"........$%&**&%$..",
".......+%+....+%+.",
".......@&......&@.",
".......#*......*#.",
".......#*......*#.",
".......@&......&@.",
".......+%+....+%+.",
"........$%&**&%$..",
".........+@##@+...",
"..................",
"..................",
"..................",
"..................",
"..................",
"..................",
".................."};
