/* XPM */
static char * bottom_right_active_xpm[] = {
"5 5 3 1",
" 	c None",
".	c #EDEDED",
"+	c #F8F8F8",
".++++",
"+++++",
"+++++",
"+++++",
"+++++"};
