/* XPM */
static char * close_inactive_xpm[] = {
"30 24 13 1",
" 	c None",
".	c #F8F8F8",
"+	c #F0F0F0",
"@	c #D9D9D9",
"#	c #CBCBCB",
"$	c #C6C6C6",
"%	c #E7E7E7",
"&	c #C7C7C7",
"*	c #E0E0E0",
"=	c #F1F1F1",
"-	c #F7F7F7",
";	c #EBEBEB",
">	c #EDEDED",
"..............................",
"..............................",
"..............................",
"..............................",
"..............................",
"..............................",
".........+@#$#@+..............",
"........%&*=-=*&%.............",
".......+&;.....;&+............",
".......@*.......*@............",
".......#=.......=#............",
".......$-.......-$............",
".......#=.......=#............",
".......@*.......*@............",
".......+&;.....;&+............",
"........%&*=-=*&%.............",
".........+@#$#@+..............",
"..............................",
"..............................",
"..............................",
"..............................",
"..............................",
"..............................",
">>>>>>>>>>>>>>>>>>>>>>>>>>>>>>"};
