/* XPM */
static char * title_1_inactive_xpm[] = {
"10 25 3 1",
" 	c None",
".	c #F8F8F8",
"+	c #EDEDED",
"..........",
"..........",
"..........",
"..........",
"..........",
"..........",
"..........",
"..........",
"..........",
"..........",
"..........",
"..........",
"..........",
"..........",
"..........",
"..........",
"..........",
"..........",
"..........",
"..........",
"..........",
"..........",
"..........",
"..........",
"++++++++++"};
