/* XPM */
static char * close__xpm[] = {
"15 25 7 1",
" 	c None",
".	c #252A33",
"+	c #4E4B45",
"@	c #696151",
"#	c #726855",
"$	c #60594D",
"%	c #746A56",
"...............",
"...............",
"...............",
"...............",
"...............",
"...............",
"...............",
"...............",
".....+@#@+.....",
"....$%%%%%$....",
"...+%%%%%%%+...",
"...@%%%%%%%@...",
"...#%%%%%%%#...",
"...@%%%%%%%@...",
"...+%%%%%%%+...",
"....$%%%%%$....",
".....+@#@+.....",
"...............",
"...............",
"...............",
"...............",
"...............",
"...............",
"...............",
"..............."};
