/* XPM */
static char * close_active_xpm[] = {
"33 22 59 1",
" 	c None",
".	c #F35576",
"+	c #F9A1B4",
"@	c #F9B0BF",
"#	c #F8A2B4",
"$	c #F891A7",
"%	c #F9A4B6",
"&	c #F899AD",
"*	c #F46683",
"=	c #FFFEFE",
"-	c #FFFFFF",
";	c #FAB6C4",
">	c #F45F7E",
",	c #FFFCFD",
"'	c #FABFCB",
")	c #F793A8",
"!	c #F6869E",
"~	c #F78AA0",
"{	c #F790A5",
"]	c #FBC2CE",
"^	c #FFFAFB",
"/	c #F35C7B",
"(	c #FAB9C7",
"_	c #F46280",
":	c #F35677",
"<	c #FEF1F4",
"[	c #FCD2DB",
"}	c #FDE9ED",
"|	c #FDDCE3",
"1	c #F57690",
"2	c #F9A3B5",
"3	c #F56D89",
"4	c #F9ACBC",
"5	c #F9A5B6",
"6	c #F5748F",
"7	c #F89CAF",
"8	c #F67D96",
"9	c #FCD4DD",
"0	c #FEEEF2",
"a	c #FBCBD5",
"b	c #FEF5F7",
"c	c #F35878",
"d	c #F45E7D",
"e	c #FFFBFC",
"f	c #FBC0CC",
"g	c #F35A7A",
"h	c #FEF8F9",
"i	c #FBC9D3",
"j	c #F7889F",
"k	c #F791A6",
"l	c #F67F98",
"m	c #F89AAD",
"n	c #F9B2C1",
"o	c #F46281",
"p	c #F9AEBE",
"q	c #F56A87",
"r	c #F45B7B",
"s	c #F4607F",
"t	c #F45E7E",
".................................",
".................................",
".................................",
".................................",
"....+@@#.$%%&....................",
"...*=--;>,--'....................",
"...)---!~---{....................",
"...]--^/(--=_....................",
"..:<--[.}--|.....................",
"..1---23---4.....................",
"..5---67---8.....................",
"..9--0:a--bc.....................",
".de--fgh--i......................",
".j---kl---m......................",
".n=-=op---q......................",
"......rsst.......................",
".................................",
".................................",
".................................",
".................................",
".................................",
"................................."};
