/* XPM */
static char * shade_active1_xpm[] = {
"32 22 26 1",
" 	c None",
".	c #252A33",
"+	c #262A34",
"@	c #602E44",
"#	c #F35576",
"$	c #402C3C",
"%	c #3B2C3A",
"&	c #512C40",
"*	c #81314F",
"=	c #9A3256",
"-	c #782F4C",
";	c #642E46",
">	c #5D2E44",
",	c #612E45",
"'	c #712F4A",
")	c #893150",
"!	c #262A33",
"~	c #452C3D",
"{	c #76304C",
"]	c #2A2B34",
"^	c #602E45",
"/	c #282A34",
"(	c #BE3E63",
"_	c #622E45",
":	c #2F2A36",
"<	c #7D304E",
"....+@##########################",
"......$#########################",
".......%########################",
"........&#######################",
".........*######################",
".........%######################",
"..........=#####################",
"..........-#####################",
"..........;#####################",
"..........>#####################",
"..........,#####################",
"..........'#####################",
"..........)#####################",
".........!######################",
".........~######################",
".........{######################",
"........]#######################",
"........^#######################",
"......./(#######################",
"......._########################",
"......:#########################",
"......<#########################"};
