/* XPM */
static char * shade_active2_xpm[] = {
"32 22 13 1",
" 	c None",
".	c #252A33",
"+	c #262A34",
"@	c #D9D9D9",
"#	c #FFFFFF",
"$	c #C1C1C1",
"%	c #EFEFEF",
"&	c #B7A1AB",
"*	c #262A33",
"=	c #2A2B34",
"-	c #282A34",
";	c #916E7D",
">	c #38343F",
"....+@##########################",
"......$#########################",
".......$########################",
"........$#######################",
".........%######################",
".........$######################",
"..........@#####################",
"..........%#####################",
"..........&#####################",
"..........@#####################",
"..........@#####################",
"..........%#####################",
"..........@#####################",
".........*######################",
".........$######################",
".........%######################",
"........=#######################",
"........@#######################",
".......-%#######################",
".......;########################",
"......>#########################",
"......%#########################"};
