/* XPM */
static char * close_active_xpm[] = {
"15 25 3 1",
" 	c None",
".	c #CF3A5E",
"+	c #151515",
"...............",
"...............",
"...............",
"+++++++++++++++",
"+++++++++++++++",
"+++++++++++++++",
"+++++++++++++++",
"+++++++++++++++",
"+++.++++++.++++",
"++++.+..+.+++++",
"+++++.++.++++++",
"++++.+..+.+++++",
"++++.+..+.+++++",
"+++++.++.++++++",
"++++.+..+.+++++",
"+++.++++++.++++",
"+++++++++++++++",
"+++++++++++++++",
"+++++++++++++++",
"+++++++++++++++",
"+++++++++++++++",
"+++++++++++++++",
"+++++++++++++++",
"+++++++++++++++",
"+++++++++++++++"};
