/* XPM */
static char * hide_active_xpm[] = {
"15 25 4 1",
" 	c None",
".	c #CF3A5E",
"+	c #151515",
"@	c #FFFFFF",
"...............",
"...............",
"...............",
"+++++++++++++++",
"+++++++++++++++",
"+++++++++++++++",
"+++++++++++++++",
"+++++++++++++++",
"++++@++++++@+++",
"+++++@+@@+@++++",
"++++++@++@+++++",
"+++++@+@@+@++++",
"+++++@+@@+@++++",
"++++++@++@+++++",
"+++++++@@++++++",
"+++++++++++++++",
"+++++++++++++++",
"+++++++++++++++",
"+++++++++++++++",
"+++++++++++++++",
"+++++++++++++++",
"+++++++++++++++",
"+++++++++++++++",
"+++++++++++++++",
"+++++++++++++++"};
