/* XPM */
static char * top_left_active_xpm[] = {
"15 22 3 1",
" 	c None",
".	c #CF3A5E",
"+	c #151515",
"   ............",
"  .............",
"  +++++++++++++",
"  +++++++++++++",
"  +++++++++++++",
"  +++++++++++++",
"  +++++++++++++",
"  +++++++++++++",
"  +++++++++++++",
"  +++++++++++++",
"  +++++++++++++",
"  +++++++++++++",
"  +++++++++++++",
"  +++++++++++++",
"  +++++++++++++",
"  +++++++++++++",
"  +++++++++++++",
"  +++++++++++++",
"  +++++++++++++",
"  +++++++++++++",
"  +++++++++++++",
"  +++++++++++++"};
