/* XPM */
static char * close_active_xpm[] = {
"31 24 43 1",
" 	c None",
".	c #FF7E7E",
"+	c #FF5A5A",
"@	c #FFADAD",
"#	c #FFDDDD",
"$	c #FFFEFE",
"%	c #FF6969",
"&	c #FFFFFF",
"*	c #FF9797",
"=	c #FFC6C6",
"-	c #FFF4F4",
";	c #FF5D5D",
">	c #E15657",
",	c #894B4F",
"'	c #54444A",
")	c #404148",
"!	c #FF8080",
"~	c #BE5254",
"{	c #434248",
"]	c #A3A5A8",
"^	c #E5E5E6",
"/	c #FCFCFC",
"(	c #FFAFAF",
"_	c #CFCFD1",
":	c #FFDFDF",
"<	c #FF6B6B",
"[	c #8F9195",
"}	c #474A51",
"|	c #FF9999",
"1	c #3E4148",
"2	c #FFC8C8",
"3	c #FFF6F6",
"4	c #FF8282",
"5	c #FFB1B1",
"6	c #FFE1E1",
"7	c #FF6D6D",
"8	c #FF9B9B",
"9	c #FFCBCB",
"0	c #FFF7F7",
"a	c #FF5F5F",
"b	c #FF8585",
"c	c #FFB4B4",
"d	c #FFE4E4",
".++++++++++++++++++++++++++    ",
"@++++++++++++++++++++++++++++  ",
"#+++++++++++++++++++++++++++++ ",
"$%++++++++++++++++++++++++++++ ",
"&*+++++++++++++++++++++++++++++",
"&=+++++++++++++++++++++++++++++",
"&-;++++++++++++>,')',>+++++++++",
"&&!+++++++++++~{]^/^]{~++++++++",
"&&(++++++++++>{_&&&&&_{>+++++++",
"&&:++++++++++,]&&&&&&&],+++++++",
"&&$<+++++++++'^&&[}[&&^'+++++++",
"&&&|+++++++++)/&&}1}&&/)+++++++",
"&&&2+++++++++'^&&[}[&&^'+++++++",
"&&&3;++++++++,]&&&&&&&],+++++++",
"&&&&4++++++++>{_&&&&&_{>+++++++",
"&&&&5+++++++++~{]^/^]{~++++++++",
"&&&&6++++++++++>,')',>+++++++++",
"&&&&&7+++++++++++++++++++++++++",
"&&&&&8+++++++++++++++++++++++++",
"&&&&&9+++++++++++++++++++++++++",
"&&&&&0a++++++++++++++++++++++++",
"&&&&&&b++++++++++++++++++++++++",
"&&&&&&c++++++++++++++++++++++++",
"&&&&&&d++++++++++++++++++++++++"};
